<svg xmlns="http://www.w3.org/2000/svg" width="640" height="180" viewBox="0 0 640 180" role="img" aria-labelledby="qao-lhd-title qao-lhd-desc"><title id="qao-lhd-title">QA Orbit horizontal dark logo</title><desc id="qao-lhd-desc">Dark QA Orbit horizontal logo for light backgrounds.</desc><g transform="translate(10 4) scale(.67)" fill="#081126"><path fill-rule="evenodd" d="M94 42a62 62 0 1 0 0 124 62 62 0 0 0 0-124Zm0 24a38 38 0 1 1 0 76 38 38 0 0 1 0-76Z"/><path fill-rule="evenodd" d="M162 48h8l52 118h-26l-12-29h-44l-12 29h-26l52-118h8Zm0 39-14 31h28l-14-31Z"/><path d="M103 124c18 24 25 38 36 50 38-12 78-38 96-73" fill="none" stroke="#081126" stroke-width="6" stroke-linecap="round" stroke-linejoin="round"/><circle cx="232" cy="94" r="7" fill="#081126"/></g><text x="198" y="103" fill="#081126" font-family="Inter, Segoe UI, Arial, sans-serif" font-size="54" font-weight="650" letter-spacing="2">QA ORBIT</text><text x="201" y="128" fill="#475569" font-family="Consolas, monospace" font-size="11" font-weight="600" letter-spacing="3">QUALITY INTELLIGENCE SYSTEM</text></svg>
